<mxfile host="app.diagrams.net" modified="2023-11-18T18:06:48.491Z" agent="Mozilla/5.0 (Windows NT 10.0; Win64; x64; rv:109.0) Gecko/20100101 Firefox/119.0" etag="4-LeSfnbu1ZQGGshDQZv" version="22.1.3" type="device">
  <diagram name="Page-1" id="BOC29ceITsvN3KYSM7Wt">
    <mxGraphModel dx="1194" dy="786" grid="1" gridSize="10" guides="1" tooltips="1" connect="1" arrows="1" fold="1" page="1" pageScale="1" pageWidth="827" pageHeight="1169" math="0" shadow="0">
      <root>
        <mxCell id="0" />
        <mxCell id="1" parent="0" />
        <mxCell id="yNtK0T5-3ggwIK_QNlmX-1" value="" style="whiteSpace=wrap;html=1;aspect=fixed;" vertex="1" parent="1">
          <mxGeometry x="330" y="60" width="330" height="330" as="geometry" />
        </mxCell>
        <mxCell id="yNtK0T5-3ggwIK_QNlmX-2" value="Sistema" style="text;html=1;strokeColor=none;fillColor=none;align=center;verticalAlign=middle;whiteSpace=wrap;rounded=0;" vertex="1" parent="1">
          <mxGeometry x="465" y="70" width="60" height="30" as="geometry" />
        </mxCell>
        <mxCell id="yNtK0T5-3ggwIK_QNlmX-3" value="Habilitar/deshabilitar un usuario" style="ellipse;whiteSpace=wrap;html=1;" vertex="1" parent="1">
          <mxGeometry x="465" y="170" width="165" height="130" as="geometry" />
        </mxCell>
        <mxCell id="yNtK0T5-3ggwIK_QNlmX-4" value="Administrador" style="shape=umlActor;verticalLabelPosition=bottom;verticalAlign=top;html=1;outlineConnect=0;" vertex="1" parent="1">
          <mxGeometry x="130" y="135" width="120" height="225" as="geometry" />
        </mxCell>
        <mxCell id="yNtK0T5-3ggwIK_QNlmX-8" value="" style="endArrow=none;html=1;rounded=0;exitX=0.75;exitY=0.1;exitDx=0;exitDy=0;exitPerimeter=0;" edge="1" parent="1" source="yNtK0T5-3ggwIK_QNlmX-4" target="yNtK0T5-3ggwIK_QNlmX-3">
          <mxGeometry width="50" height="50" relative="1" as="geometry">
            <mxPoint x="320" y="340" as="sourcePoint" />
            <mxPoint x="370" y="290" as="targetPoint" />
          </mxGeometry>
        </mxCell>
      </root>
    </mxGraphModel>
  </diagram>
</mxfile>
